# xmcd CD database file generated by OrangeCD 5.2
#
# Track frame offsets:
#	150
#	14655
#	28159
#	49829
#	62434
#	86683
#
# Disc length: 2304 seconds
#
# Revision: 1
# Processed by: cddbd v1.5.2PL0 Copyright (c) Steve Scherf et al.
# Submitted via: OrangeCD 5.2
#
DISCID=4908fe06
DTITLE=Tony McPhee - The Two Sides Of Tony (T.S.) McPhee
DYEAR=1973
DGENRE=Blues
TTITLE0=Three Times Seven
TTITLE1=All My Money, Alimony
TTITLE2=Morning's Eye
TTITLE3=Dog Me, Bitch
TTITLE4=Take It Out
TTITLE5=The Hunt
EXTD=ARD Charly Records  CLACD 267 1973 Heat Records
EXTT0=
EXTT1=
EXTT2=
EXTT3=
EXTT4=
EXTT5=
PLAYORDER=
